<?xml version="1.0" standalone="no"?>
<!DOCTYPE svg PUBLIC "-//W3C//DTD SVG 20010904//EN"
 "http://www.w3.org/TR/2001/REC-SVG-20010904/DTD/svg10.dtd">
<svg version="1.0" xmlns="http://www.w3.org/2000/svg"
 width="300.000000pt" height="300.000000pt" viewBox="0 0 300.000000 300.000000"
 preserveAspectRatio="xMidYMid meet">
<metadata>
Created by potrace 1.10, written by Peter Selinger 2001-2011
</metadata>
<g transform="translate(0.000000,300.000000) scale(0.100000,-0.100000)"
fill="#000000" stroke="none">
<path d="M1435 2592 c-10 -3 -28 -10 -40 -17 -11 -8 -47 -21 -80 -30 -71 -20
-140 -44 -175 -62 -14 -7 -30 -13 -36 -13 -7 0 -14 -7 -18 -15 -3 -8 -12 -15
-19 -15 -8 0 -25 -13 -40 -29 -25 -29 -25 -30 -4 -28 12 1 29 8 38 17 9 8 29
26 43 38 14 13 34 25 43 27 10 2 20 4 23 5 3 1 8 2 13 1 4 0 7 3 7 8 0 5 12
12 28 16 15 5 34 10 42 12 36 11 133 20 151 16 11 -3 39 -1 62 5 98 25 124 24
153 -5 26 -26 27 -26 22 -5 -4 12 -2 24 2 27 7 4 95 -10 195 -31 17 -3 42 -8
57 -11 31 -6 28 -23 -3 -23 -10 0 -19 -4 -19 -10 0 -6 10 -6 27 1 65 25 175
-37 242 -137 l28 -41 -26 4 -26 3 24 -10 c13 -6 26 -8 30 -5 9 10 40 -98 40
-143 1 -38 -1 -43 -18 -37 -11 3 -22 2 -24 -3 -3 -4 6 -8 21 -7 25 0 27 3 30
49 2 26 -2 62 -7 79 -13 37 -10 42 21 27 l23 -11 -24 21 c-13 11 -29 24 -36
28 -6 4 -25 28 -42 53 -37 53 -107 119 -127 119 -8 0 -18 5 -21 10 -4 6 9 10
31 10 29 0 43 -7 69 -34 17 -18 45 -41 62 -50 44 -22 86 -96 153 -266 22 -59
44 -236 34 -282 -3 -17 -1 -28 5 -28 12 0 16 63 12 165 -5 113 -105 351 -169
404 -20 17 -50 44 -67 60 -38 38 -67 49 -141 52 -32 2 -76 9 -97 16 -57 20
-260 53 -322 53 -30 0 -56 4 -59 9 -7 10 -62 18 -91 13z m84 -26 c9 -11 9 -14
-1 -13 -7 1 -39 -3 -71 -7 -67 -10 -80 -4 -40 17 36 19 97 21 112 3z"/>
<path d="M2116 2543 c-6 -14 -5 -15 5 -6 7 7 10 15 7 18 -3 3 -9 -2 -12 -12z"/>
<path d="M1295 2486 c6 -26 4 -28 -20 -24 -19 4 -23 2 -15 -7 12 -15 149 -10
164 6 8 8 -5 10 -49 7 -54 -3 -60 -1 -73 22 l-14 25 7 -29z"/>
<path d="M1400 2489 c36 -4 83 -11 105 -13 53 -6 53 -6 30 -16 -12 -5 36 -9
127 -12 103 -2 144 0 138 8 -5 5 -53 11 -107 13 -54 1 -102 6 -108 10 -5 5
-64 11 -130 14 -93 4 -105 3 -55 -4z"/>
<path d="M1180 2450 c0 -5 -10 -10 -22 -10 -17 0 -19 -3 -10 -9 11 -7 11 -9
-2 -14 -8 -3 -17 -1 -20 6 -3 8 -5 8 -5 -2 -1 -17 -39 -51 -57 -51 -7 0 -18
-12 -25 -27 -6 -16 -28 -36 -48 -45 -60 -29 -178 -149 -165 -169 3 -5 1 -9 -3
-9 -11 0 -34 -38 -39 -64 -28 -173 -32 -318 -9 -372 19 -46 19 -45 -7 -58 -30
-15 -43 -92 -30 -178 9 -53 8 -65 -5 -75 -8 -6 -13 -18 -10 -25 4 -10 6 -10 6
1 1 22 41 -18 41 -41 0 -24 34 -90 54 -107 9 -8 14 -22 10 -35 -3 -13 6 -38
25 -68 20 -31 32 -65 36 -105 6 -53 29 -123 41 -123 9 0 -1 55 -11 62 -5 4
-10 32 -10 63 0 30 -3 55 -6 55 -3 0 -11 12 -18 27 -11 23 -10 25 3 13 9 -7
16 -8 16 -2 0 12 -25 34 -32 27 -3 -3 -13 6 -22 21 -10 14 -15 28 -12 31 9 9
55 -31 68 -59 7 -16 17 -28 22 -28 4 0 6 -7 3 -14 -4 -10 -1 -13 9 -9 19 7 18
14 -9 43 -35 39 -137 187 -137 200 0 6 -3 9 -7 7 -5 -3 -8 8 -9 23 -1 15 -5
36 -9 46 -5 11 -10 33 -11 49 -2 17 -5 44 -8 62 -4 35 12 123 23 123 4 0 13
-6 20 -12 10 -11 11 -10 6 5 -8 18 9 24 20 7 3 -5 16 -10 28 -10 28 0 55 -73
36 -96 -9 -11 -9 -18 -1 -26 9 -9 12 -8 12 4 0 9 5 18 11 20 8 3 6 15 -4 40
-9 20 -13 45 -10 56 2 10 -3 26 -11 35 -18 17 -21 32 -6 22 12 -7 12 2 0 30
-8 19 -9 19 -9 -4 -1 -16 -5 -21 -15 -18 -8 3 -16 2 -18 -3 -7 -22 -47 3 -54
34 -11 48 -6 270 6 274 5 2 10 16 10 30 0 57 111 232 146 232 7 0 31 18 53 39
50 49 95 73 110 58 8 -8 11 -6 11 5 0 9 6 19 13 22 6 3 -3 5 -20 3 -31 -3 -32
-3 -16 15 9 10 20 18 26 18 5 0 22 10 37 23 15 12 36 27 46 34 18 11 18 12 -3
12 -13 1 -23 -3 -23 -9z m-110 -104 c0 -3 -4 -8 -10 -11 -5 -3 -10 -1 -10 4 0
6 5 11 10 11 6 0 10 -2 10 -4z m-198 -716 c27 -25 8 -27 -43 -6 -32 14 -33 14
-9 19 14 2 26 5 28 6 2 0 12 -8 24 -19z m-52 -390 c6 -11 8 -20 6 -20 -3 0
-10 9 -16 20 -6 11 -8 20 -6 20 3 0 10 -9 16 -20z"/>
<path d="M1460 2450 c12 -8 11 -10 -7 -10 -34 0 -194 -61 -214 -81 -9 -9 -20
-14 -24 -11 -4 4 -11 -1 -16 -11 -6 -9 -15 -17 -21 -17 -18 0 -75 -47 -99 -82
-18 -26 -19 -30 -5 -18 18 14 18 13 12 -10 -6 -21 -5 -22 4 -7 7 10 9 25 6 33
-4 9 1 14 14 14 11 0 20 7 20 15 0 8 5 15 12 15 6 0 25 11 42 24 52 39 192
105 238 112 24 3 48 12 53 19 6 6 17 14 25 18 8 3 -1 6 -20 6 -26 1 -31 -2
-20 -9z"/>
<path d="M1896 2451 c-4 -7 -5 -15 -2 -18 9 -9 19 4 14 18 -4 11 -6 11 -12 0z"/>
<path d="M1502 2426 c7 -8 16 -12 21 -9 11 7 -2 23 -19 23 -12 0 -12 -2 -2
-14z"/>
<path d="M1240 2412 c-14 -9 -32 -23 -40 -31 -13 -13 -13 -13 0 -8 8 4 22 10
30 13 9 3 21 14 28 25 14 23 14 23 -18 1z"/>
<path d="M1685 2400 c-4 -6 -3 -10 2 -9 20 3 23 -2 13 -23 -10 -20 -9 -21 3
-6 12 15 20 8 80 -66 37 -46 67 -86 67 -89 0 -10 -69 18 -153 62 -75 39 -126
53 -112 31 3 -5 -1 -10 -11 -10 -19 0 -95 -42 -197 -107 -37 -24 -71 -42 -75
-40 -4 3 -15 -5 -24 -18 -18 -23 -17 -24 27 -45 36 -17 56 -21 98 -16 35 4 46
3 32 -3 -11 -5 -31 -10 -44 -10 -13 -1 -21 -4 -18 -7 18 -19 215 47 263 87 16
13 19 39 4 39 -5 0 -10 -10 -10 -22 0 -12 -3 -18 -6 -15 -4 4 -19 -2 -34 -13
-15 -11 -40 -24 -56 -30 -27 -9 -28 -9 -9 5 36 26 45 36 45 47 0 5 -8 0 -18
-12 -19 -23 -110 -50 -173 -50 -53 0 -102 19 -89 35 8 10 20 10 62 -2 44 -13
59 -14 107 -2 31 7 60 12 64 11 5 -2 6 2 3 7 -4 5 -1 11 6 14 16 5 -15 -2 -68
-15 -45 -12 -138 -2 -129 13 4 5 10 7 15 4 4 -3 11 2 14 11 3 8 10 12 16 9 5
-3 10 -1 10 5 0 6 5 8 10 5 6 -3 10 -1 10 5 0 6 5 8 12 4 7 -5 8 -3 3 6 -6 9
-4 12 7 8 8 -4 21 2 29 13 7 10 17 19 22 19 5 0 38 14 73 30 l63 31 100 -51
c72 -37 108 -51 132 -48 l33 3 -68 84 c-37 46 -60 81 -51 78 9 -4 14 -3 10 3
-12 19 38 10 92 -16 33 -17 71 -47 100 -81 48 -56 53 -77 12 -45 -71 55 -189
131 -189 123 0 -5 17 -20 37 -32 21 -13 65 -44 98 -70 97 -74 141 -70 74 6
-34 39 -31 45 9 17 48 -33 58 -36 37 -13 -21 25 -75 56 -75 44 0 -4 -16 8 -35
27 -25 24 -35 43 -35 64 -1 29 -1 30 -15 12 -11 -14 -12 -23 -4 -33 16 -18 5
-16 -33 7 -34 21 -78 27 -78 11 0 -13 -37 -2 -51 15 -14 17 -25 18 -34 4z
m-190 -320 c-3 -5 -14 -10 -23 -10 -15 0 -15 2 -2 10 20 13 33 13 25 0z"/>
<path d="M496 2313 c-6 -14 -5 -15 5 -6 7 7 10 15 7 18 -3 3 -9 -2 -12 -12z"/>
<path d="M1400 2296 c-96 -35 -251 -116 -243 -129 3 -5 1 -7 -4 -4 -6 4 -16 1
-22 -7 -9 -11 -8 -14 5 -12 9 0 19 -6 21 -14 4 -13 3 -13 -6 0 -13 18 -14 1
-2 -19 8 -12 11 -8 16 15 11 49 14 54 32 60 10 4 59 26 109 50 50 24 118 50
150 58 32 8 54 15 47 15 -6 1 -17 3 -25 6 -7 2 -42 -6 -78 -19z"/>
<path d="M1215 2301 c-3 -5 2 -11 10 -15 8 -3 17 -1 20 3 3 5 -2 11 -10 15 -8
3 -17 1 -20 -3z"/>
<path d="M1563 2204 c33 -18 35 -31 5 -37 -13 -2 -6 -4 15 -4 37 0 37 1 20 21
-24 28 -35 36 -53 35 -8 0 -3 -7 13 -15z"/>
<path d="M2123 2208 c4 -12 1 -14 -15 -10 -20 5 -20 4 -3 -22 12 -18 14 -26 5
-24 -7 2 -14 -6 -16 -17 -2 -11 -5 -31 -8 -45 -2 -14 -5 -27 -5 -29 -1 -3 -6
0 -13 7 -7 7 -19 12 -27 12 -10 0 1 -15 27 -38 23 -21 42 -42 42 -47 0 -10 51
-60 86 -83 16 -10 15 -11 -6 -1 -28 13 -94 70 -97 83 -1 10 -24 26 -36 26 -16
0 25 -47 74 -85 29 -22 59 -47 68 -55 9 -8 28 -20 42 -27 22 -10 26 -17 23
-48 -2 -36 -2 -36 18 -19 11 11 15 20 9 22 -6 2 -11 11 -11 21 0 22 -38 63
-50 56 -6 -3 -7 0 -4 8 3 8 -12 28 -37 48 -67 53 -89 82 -88 109 2 23 2 24 6
3 5 -28 23 -30 23 -3 0 10 -8 24 -17 29 -17 10 -17 10 0 11 9 0 17 5 17 11 0
5 -5 7 -12 3 -7 -5 -8 -3 -3 7 5 7 10 23 11 36 2 13 5 32 9 42 3 11 0 23 -6
27 -8 5 -10 2 -6 -8z"/>
<path d="M1688 2164 c-16 -8 -28 -16 -28 -17 0 -6 59 1 69 8 14 8 14 3 1 -29
-5 -14 -16 -26 -24 -26 -7 0 -19 -7 -26 -15 -10 -12 -9 -15 8 -15 11 0 31 13
45 29 14 17 28 27 31 24 3 -4 6 -1 6 5 0 7 -4 12 -10 12 -5 0 -10 5 -10 11 0
5 5 7 11 3 7 -4 10 -1 7 6 -6 19 -49 22 -80 4z"/>
<path d="M1019 2163 c-1 -5 -1 -11 0 -15 0 -5 -3 -8 -9 -8 -5 0 -10 -6 -10
-14 0 -8 -6 -17 -12 -19 -10 -4 -10 -6 0 -6 16 -1 16 -21 -1 -21 -22 0 -50
-38 -54 -72 -2 -18 -10 -36 -17 -40 -8 -4 -13 -19 -12 -33 2 -13 0 -22 -4 -20
-4 2 -17 -44 -30 -103 -12 -59 -25 -114 -27 -122 -3 -10 1 -8 11 4 9 11 16 31
16 45 0 21 2 23 10 11 8 -13 10 -12 10 3 0 9 -4 17 -8 17 -5 0 -6 14 -4 31 3
22 7 27 13 18 6 -10 9 -5 9 15 0 32 9 63 48 169 14 37 29 67 34 67 5 0 6 -4 3
-10 -3 -5 -4 -10 -1 -10 3 0 19 27 35 60 23 45 26 60 15 60 -7 0 -15 -3 -15
-7z"/>
<path d="M1200 2135 c1 -26 2 -28 11 -12 8 14 8 22 0 30 -8 8 -11 3 -11 -18z"/>
<path d="M895 2094 c-21 -29 -35 -58 -35 -76 0 -17 -4 -27 -10 -23 -6 4 -7 -1
-3 -10 4 -13 13 -6 35 30 16 26 27 49 24 52 -2 3 -11 -8 -20 -24 -8 -15 -15
-22 -16 -14 0 7 17 29 37 47 20 19 33 34 28 34 -5 0 0 7 11 15 17 13 17 14 2
15 -9 0 -33 -21 -53 -46z"/>
<path d="M1824 2105 c11 -8 30 -15 42 -15 13 0 26 -5 30 -11 7 -12 -15 -31
-28 -23 -4 3 -19 -3 -32 -12 -24 -15 -91 -22 -103 -10 -3 3 6 8 21 12 25 6 39
44 16 44 -5 0 -7 -6 -4 -13 3 -8 -6 -18 -21 -25 -34 -16 -39 -15 -87 8 -23 11
-51 20 -62 20 -19 -1 -19 -2 4 -14 14 -8 29 -14 34 -14 5 0 13 -6 17 -14 6 -8
9 -9 9 -1 0 8 9 7 30 -4 31 -15 131 -26 156 -16 8 3 11 10 7 16 -3 6 -1 7 5 3
11 -6 55 19 90 52 7 6 18 12 23 12 5 0 9 4 9 9 0 5 -18 8 -39 8 -25 -1 -36 -6
-30 -11 18 -19 8 -26 -18 -13 -16 8 -41 17 -58 21 -28 6 -29 5 -11 -9z"/>
<path d="M1086 2094 c-4 -10 -1 -14 6 -12 15 5 23 28 10 28 -5 0 -13 -7 -16
-16z"/>
<path d="M1246 2073 c4 -16 7 -28 8 -28 1 0 19 -10 41 -22 23 -11 67 -26 98
-32 31 -6 65 -14 75 -20 11 -5 39 -4 77 4 36 7 67 9 77 4 9 -5 35 -9 57 -9 22
0 43 -5 47 -11 10 -17 144 -5 189 16 46 22 40 30 -8 10 -23 -9 -66 -15 -114
-14 -49 0 -71 3 -58 8 18 7 15 10 -19 25 -48 20 -71 20 -33 0 33 -18 34 -22 5
-18 -13 2 -44 6 -70 9 -39 5 -45 9 -35 19 8 10 19 11 35 5 35 -13 40 -10 10 6
-23 13 -32 13 -68 0 -30 -10 -67 -14 -124 -11 -44 3 -89 5 -98 5 -10 1 -18 6
-18 12 0 6 9 8 23 4 17 -5 19 -4 7 4 -8 6 -29 11 -47 11 -17 0 -35 5 -39 12
-4 7 -3 8 4 4 7 -4 12 -3 12 1 0 5 -9 14 -20 21 -19 12 -20 11 -14 -15z"/>
<path d="M1180 2080 c-12 -8 -12 -12 -2 -18 9 -6 1 -30 -34 -98 -25 -49 -53
-97 -61 -106 -9 -10 -12 -18 -7 -18 5 0 1 -5 -10 -11 -11 -7 -14 -14 -8 -18
14 -9 -21 -77 -37 -73 -9 2 -11 -3 -8 -13 4 -9 -1 -20 -13 -27 -11 -7 -20 -23
-20 -36 0 -26 -29 -82 -42 -82 -4 0 -8 9 -8 20 0 11 -5 20 -11 20 -6 0 -8 -7
-5 -16 3 -9 6 -25 6 -35 0 -20 0 -20 29 0 15 11 34 35 42 53 7 18 20 38 29 45
8 6 12 14 8 18 -11 11 15 33 31 27 10 -4 13 -1 8 12 -4 9 -3 15 1 12 5 -3 9 8
9 23 0 39 23 92 36 84 5 -3 7 -1 4 4 -4 6 5 23 19 38 18 20 22 30 14 35 -7 4
-9 13 -5 20 6 9 10 9 17 -1 6 -10 7 -7 3 10 -5 16 -4 21 4 17 7 -5 8 -1 4 10
-4 12 -3 15 5 10 8 -4 10 -2 6 7 -3 8 2 21 10 30 9 9 16 23 16 31 0 9 5 16 10
16 6 0 10 5 10 10 0 13 -30 13 -50 0z"/>
<path d="M1111 2057 c-8 -11 -8 -16 -2 -12 6 3 11 1 11 -5 0 -7 6 -5 15 4 8 8
15 19 15 24 0 16 -27 9 -39 -11z"/>
<path d="M1071 2061 c-7 -5 -11 -15 -9 -22 3 -10 8 -7 17 9 13 24 12 26 -8 13z"/>
<path d="M1915 2025 c-23 -10 -26 -15 -14 -20 8 -3 28 -1 43 5 17 6 25 6 21 0
-3 -6 0 -10 8 -10 16 0 30 24 20 34 -10 10 -46 5 -78 -9z"/>
<path d="M1034 1995 c3 -16 -1 -29 -12 -37 -9 -7 -19 -22 -20 -33 -2 -11 -10
-27 -18 -36 -12 -14 -12 -16 1 -16 8 0 12 4 10 8 -3 4 2 10 11 13 9 3 14 12
11 19 -2 6 4 24 14 38 10 14 19 32 21 40 2 8 8 17 13 21 6 4 0 8 -13 8 -18 0
-22 -4 -18 -25z"/>
<path d="M1119 2013 c-1 -4 -1 -12 0 -17 1 -5 -5 -6 -12 -3 -11 4 -13 0 -10
-14 7 -24 7 -24 27 5 10 15 12 27 6 31 -6 3 -11 3 -11 -2z"/>
<path d="M1820 1990 c-9 -6 -10 -10 -3 -10 6 0 15 5 18 10 8 12 4 12 -15 0z"/>
<path d="M1286 1976 c3 -8 19 -19 36 -25 36 -13 135 -15 142 -3 2 4 -24 8 -59
8 -42 0 -72 6 -89 17 -31 21 -37 21 -30 3z"/>
<path d="M2285 1970 c3 -5 11 -10 16 -10 6 0 7 5 4 10 -3 6 -11 10 -16 10 -6
0 -7 -4 -4 -10z"/>
<path d="M2279 1943 c0 -5 -2 -19 -3 -33 -4 -29 3 -50 14 -50 5 0 6 9 3 21 -7
24 17 45 29 26 5 -8 8 -4 8 9 0 25 -48 50 -51 27z"/>
<path d="M1080 1927 c0 -10 -4 -16 -8 -13 -4 2 -14 -9 -21 -25 -7 -16 -18 -29
-24 -29 -18 -1 -46 -45 -38 -59 6 -9 20 3 45 38 21 28 45 55 53 60 12 6 13 12
5 27 -11 18 -11 18 -12 1z"/>
<path d="M797 1878 c8 -44 13 -48 13 -10 0 17 -4 34 -10 37 -6 4 -7 -6 -3 -27z"/>
<path d="M372 1830 c0 -14 2 -19 5 -12 2 6 2 18 0 25 -3 6 -5 1 -5 -13z"/>
<path d="M2316 1831 c-3 -4 3 -19 14 -31 24 -27 27 -108 3 -89 -7 6 -13 7 -13
3 0 -5 9 -15 19 -21 16 -10 20 -9 25 10 10 37 7 65 -11 102 -17 35 -27 43 -37
26z"/>
<path d="M946 1782 c-4 -11 -17 -29 -31 -42 -21 -20 -22 -24 -9 -37 8 -9 16
-14 17 -12 45 83 56 109 43 109 -8 0 -17 -8 -20 -18z"/>
<path d="M2226 1754 c1 -35 -3 -50 -20 -65 -19 -18 -19 -20 -2 -13 16 6 18 4
13 -10 -4 -10 -7 -23 -7 -29 0 -6 -11 0 -25 13 -23 21 -23 24 -7 36 9 8 12 14
5 14 -6 0 -14 -4 -18 -9 -3 -6 -23 -2 -48 9 -53 25 -209 28 -262 6 -35 -15
-95 -63 -64 -51 19 7 34 -21 17 -31 -7 -4 -8 -3 -4 4 9 15 -7 15 -22 0 -8 -8
-15 -8 -27 2 -12 10 -15 10 -15 -3 0 -8 -9 -17 -20 -20 -11 -3 -20 -13 -19
-24 0 -10 3 -13 5 -7 3 7 14 10 24 7 14 -4 20 0 20 11 0 10 6 13 15 10 8 -4
15 -1 15 5 0 7 6 11 13 10 28 -3 47 2 63 19 14 13 37 17 101 19 87 2 144 -13
171 -46 11 -14 12 -13 3 6 -16 32 -14 35 14 17 14 -9 28 -14 31 -12 8 9 -42
37 -62 34 -10 -2 -37 3 -60 10 -23 7 -75 11 -116 10 -54 -2 -75 0 -75 9 0 7
10 13 21 13 57 1 173 0 189 -1 9 -1 17 -7 17 -14 0 -7 5 -13 11 -13 5 0 7 5 3
11 -9 15 35 -8 63 -33 12 -11 19 -26 16 -34 -10 -27 21 -4 45 31 20 32 20 35
5 35 -11 0 -14 3 -7 8 16 11 24 40 13 44 -7 2 -7 12 0 30 9 24 6 38 -8 38 -4
0 -6 -21 -5 -46z m-376 -89 c0 -14 -4 -25 -10 -25 -5 0 -6 8 -3 17 5 13 2 15
-13 10 -19 -7 -19 -7 0 8 26 19 26 19 26 -10z"/>
<path d="M1208 1776 c-30 -11 -118 -71 -118 -80 0 -9 90 4 108 15 28 17 29 33
1 19 -11 -6 -25 -10 -32 -7 -6 2 9 13 34 25 34 17 63 22 115 21 48 0 63 -3 49
-9 -17 -7 -16 -9 10 -10 17 -2 36 -2 43 -1 16 3 82 -27 82 -36 0 -3 -7 -2 -16
1 -14 5 -15 4 -4 -9 15 -19 40 -20 40 -2 0 61 -210 109 -312 73z"/>
<path d="M2267 1746 c-4 -10 -1 -13 9 -9 15 6 19 23 5 23 -5 0 -11 -7 -14 -14z"/>
<path d="M1260 1725 c0 -11 12 -15 45 -15 54 0 48 1 87 -11 50 -16 90 -20 83
-9 -3 6 -16 10 -28 10 -12 0 -34 6 -49 14 -15 8 -42 13 -60 12 -18 -1 -43 2
-55 6 -17 6 -23 4 -23 -7z"/>
<path d="M1235 1720 c3 -5 8 -10 11 -10 2 0 4 5 4 10 0 6 -5 10 -11 10 -5 0
-7 -4 -4 -10z"/>
<path d="M2283 1703 c-7 -15 -13 -36 -13 -47 0 -12 -7 -46 -15 -76 -22 -83
-28 -130 -15 -130 6 0 10 6 9 13 -3 14 20 127 29 142 3 5 5 25 3 43 -1 18 3
39 9 47 7 8 10 19 8 24 -1 6 -9 -2 -15 -16z"/>
<path d="M2372 1665 c-14 -31 -15 -35 -3 -35 9 0 25 49 18 56 -2 2 -9 -7 -15
-21z"/>
<path d="M1173 1659 c-12 -6 -24 -17 -27 -24 -4 -10 1 -10 22 1 15 8 36 14 47
13 17 0 16 -2 -5 -11 -69 -29 -73 -32 -53 -39 10 -3 20 -4 23 0 32 39 166 41
215 3 20 -16 31 -19 36 -11 10 17 0 39 -20 39 -14 -1 -13 -3 3 -15 11 -8 15
-15 9 -15 -14 0 -35 25 -27 33 24 24 -180 48 -223 26z"/>
<path d="M2314 1647 c3 -10 6 -24 7 -30 0 -7 5 -1 10 12 5 13 7 26 4 29 -3 3
-5 -1 -5 -9 0 -12 -2 -11 -11 1 -9 12 -10 12 -5 -3z"/>
<path d="M955 1629 c-4 -6 -5 -12 -2 -15 2 -3 7 2 10 11 7 17 1 20 -8 4z"/>
<path d="M511 1614 c0 -11 3 -14 6 -6 3 7 2 16 -1 19 -3 4 -6 -2 -5 -13z"/>
<path d="M2371 1583 c-6 -21 -11 -48 -11 -61 0 -13 -4 -21 -9 -18 -4 3 -6 -6
-3 -19 3 -19 0 -25 -13 -25 -12 0 -15 -5 -10 -20 5 -15 3 -18 -8 -14 -9 3 -15
0 -14 -8 1 -35 -4 -45 -25 -44 -13 1 -27 -8 -34 -22 -19 -38 -76 -83 -96 -76
-12 3 -18 0 -18 -10 0 -12 6 -13 33 -5 17 5 34 14 35 19 6 18 60 41 67 29 9
-13 -25 -40 -42 -34 -21 7 -14 -14 8 -26 17 -8 24 -8 33 3 6 7 7 10 2 6 -20
-16 -28 -7 -11 12 10 11 22 17 26 14 5 -3 9 1 9 9 0 20 -27 40 -42 31 -7 -4
-2 5 11 19 13 15 28 24 33 21 11 -7 47 36 48 56 0 9 7 26 16 38 9 13 18 44 20
70 2 26 6 57 9 70 9 37 -3 25 -14 -15z"/>
<path d="M1910 1592 c-25 -10 -54 -23 -65 -30 -18 -11 -16 -11 14 -7 19 3 38
8 43 11 9 6 49 14 78 16 48 4 73 -6 115 -42 48 -41 79 -54 54 -22 -20 24 -32
32 -42 25 -5 -3 -7 0 -5 8 3 8 12 13 21 13 9 -1 14 2 11 8 -3 5 -14 6 -25 3
-27 -9 -49 6 -23 16 15 6 13 7 -11 7 -16 0 -50 3 -75 6 -30 4 -60 0 -90 -12z"/>
<path d="M2351 1594 c0 -11 3 -14 6 -6 3 7 2 16 -1 19 -3 4 -6 -2 -5 -13z"/>
<path d="M2156 1593 c-11 -11 -7 -25 6 -17 8 5 9 -2 5 -25 -4 -19 -3 -30 3
-26 5 3 7 -12 4 -37 -3 -31 -1 -38 6 -27 5 9 10 32 12 50 1 19 6 39 11 46 5 7
7 18 5 24 -5 14 -42 22 -52 12z"/>
<path d="M1237 1563 c-1 -1 -21 -3 -45 -6 -23 -2 -45 -7 -48 -10 -12 -12 5
-35 27 -39 12 -2 24 -9 27 -16 2 -7 -2 -10 -12 -6 -9 3 -16 1 -16 -5 0 -6 4
-11 9 -11 5 0 17 -3 27 -7 13 -5 15 -3 9 8 -7 12 -6 12 7 1 9 -7 19 -9 22 -4
3 5 -8 19 -25 31 -35 26 -32 37 13 36 33 0 33 -1 31 -42 -2 -37 0 -43 17 -43
10 0 21 4 24 9 4 5 -3 7 -13 4 -18 -5 -19 -2 -9 36 11 45 21 49 64 26 33 -17
64 -20 64 -5 0 5 7 7 15 4 12 -5 13 -9 4 -20 -7 -8 -14 -12 -16 -10 -3 3 -16
1 -29 -4 -18 -7 -26 -5 -34 8 -11 16 -11 15 -6 -1 3 -10 6 -21 6 -23 0 -2 14
-4 30 -4 29 0 70 29 70 50 0 12 -30 25 -80 34 l-35 6 30 -15 30 -14 -27 -1
c-17 0 -31 7 -38 20 -9 16 -19 20 -51 18 -22 -2 -41 -4 -42 -5z"/>
<path d="M954 1502 c-5 -31 -7 -88 -4 -127 5 -64 6 -60 11 55 4 69 6 126 5
127 -1 2 -6 -23 -12 -55z"/>
<path d="M1654 1533 c-3 -10 -10 -27 -16 -38 -9 -20 -3 -148 8 -166 3 -5 1 -9
-4 -9 -9 0 1 -111 12 -128 3 -6 -3 -17 -14 -25 -11 -7 -18 -16 -15 -19 3 -2
-9 -2 -26 0 -24 4 -30 2 -24 -8 5 -9 4 -11 -4 -6 -6 4 -9 11 -6 16 10 17 -55
27 -89 14 -9 -4 -21 -15 -27 -26 -7 -13 -7 -18 -1 -14 6 3 13 2 17 -4 7 -12
85 -10 85 2 0 5 11 1 25 -8 14 -9 25 -12 25 -6 0 5 16 13 35 16 19 4 35 12 35
18 0 6 2 9 5 7 2 -3 1 -19 -4 -35 -7 -25 -6 -30 9 -30 10 0 23 8 29 17 8 13 5
23 -11 44 -17 22 -22 48 -29 157 -5 72 -11 133 -14 136 -3 3 -1 10 4 16 14 18
23 84 11 91 -5 3 -13 -2 -16 -12z m-114 -387 c0 -2 -7 -6 -15 -10 -8 -3 -15
-1 -15 4 0 6 7 10 15 10 8 0 15 -2 15 -4z"/>
<path d="M1312 1500 c0 -14 2 -19 5 -12 2 6 2 18 0 25 -3 6 -5 1 -5 -13z"/>
<path d="M1853 1513 c-24 -2 -43 -9 -43 -15 0 -6 3 -8 7 -5 3 4 12 -1 19 -11
7 -9 14 -12 14 -7 0 16 119 16 175 0 75 -20 131 -10 83 16 -12 7 -25 11 -28
10 -5 -2 -138 8 -170 13 -8 1 -34 1 -57 -1z"/>
<path d="M2267 1486 c-4 -10 -5 -21 -2 -24 9 -9 17 6 13 25 -3 17 -4 17 -11
-1z"/>
<path d="M1074 1478 c-4 -7 -3 -8 4 -4 7 4 39 -9 71 -29 54 -34 65 -37 113
-32 29 3 77 7 106 10 56 5 68 10 58 26 -4 6 -16 6 -36 -1 -34 -11 -65 -4 -54
13 4 8 3 9 -5 5 -6 -4 -9 -11 -6 -16 14 -22 -120 -25 -147 -3 -19 15 -75 43
-87 43 -5 0 -13 -5 -17 -12z"/>
<path d="M2200 1483 c0 -5 5 -15 10 -23 8 -12 10 -11 10 8 0 12 -4 22 -10 22
-5 0 -10 -3 -10 -7z"/>
<path d="M915 1470 c-3 -5 1 -10 9 -10 9 0 16 5 16 10 0 6 -4 10 -9 10 -6 0
-13 -4 -16 -10z"/>
<path d="M1808 1474 c-4 -3 1 -14 10 -25 9 -10 17 -29 17 -41 0 -19 10 -25 65
-39 53 -13 72 -14 105 -4 27 8 40 17 39 28 -1 11 6 17 19 17 22 0 87 39 87 53
0 14 -19 7 -29 -10 -8 -14 -12 -15 -19 -5 -7 10 -11 10 -22 -3 -7 -8 -28 -15
-46 -15 -21 0 -42 -8 -54 -20 -11 -11 -16 -20 -11 -20 6 0 13 5 16 10 8 13 42
13 50 -1 9 -14 4 -18 -38 -24 -22 -4 -58 1 -92 11 -44 14 -55 22 -55 39 0 23
-32 60 -42 49z"/>
<path d="M2295 1470 c-3 -5 -1 -10 4 -10 6 0 11 5 11 10 0 6 -2 10 -4 10 -3 0
-8 -4 -11 -10z"/>
<path d="M1850 1463 c0 -18 26 -43 63 -62 32 -16 37 -17 37 -3 0 8 -3 12 -7 9
-3 -4 -26 9 -50 29 -23 19 -43 31 -43 27z"/>
<path d="M880 1431 c0 -21 5 -28 18 -27 23 1 37 25 23 39 -8 8 -11 6 -11 -7 0
-9 -4 -15 -10 -11 -5 3 -7 12 -3 20 3 8 0 15 -6 15 -6 0 -11 -13 -11 -29z"/>
<path d="M1925 1449 c-11 -17 1 -21 15 -4 8 9 8 15 2 15 -6 0 -14 -5 -17 -11z"/>
<path d="M2184 1436 c-3 -7 -4 -35 -2 -62 l3 -49 5 63 c5 63 4 73 -6 48z"/>
<path d="M2221 1413 c-1 -12 4 -25 9 -28 12 -7 12 2 0 30 -8 19 -9 19 -9 -2z"/>
<path d="M907 1384 c-3 -3 -4 -11 -3 -17 2 -7 1 -9 -1 -4 -3 4 -9 7 -15 7 -14
0 -2 -78 15 -94 7 -7 23 -46 35 -87 13 -41 32 -93 43 -117 10 -23 19 -51 19
-62 0 -11 9 -25 20 -32 11 -7 20 -16 20 -21 0 -4 -4 -5 -10 -2 -5 3 -10 -1
-10 -9 0 -8 5 -18 10 -21 6 -3 10 -13 10 -22 0 -20 61 -112 75 -113 6 0 18
-14 27 -30 9 -17 23 -30 31 -30 8 0 25 -15 38 -34 36 -50 119 -139 124 -134 3
2 -10 22 -29 44 -18 21 -31 44 -29 51 2 7 -39 56 -93 110 -87 88 -133 154
-134 191 0 8 -8 21 -19 30 -18 16 -32 57 -51 147 -18 85 -29 117 -47 137 -10
12 -12 18 -5 14 7 -4 12 -1 12 9 0 8 -10 20 -22 25 -13 5 -17 9 -8 9 10 1 15
11 15 31 0 29 -5 36 -18 24z"/>
<path d="M2134 1339 c7 -58 16 -61 16 -6 0 26 -5 47 -10 47 -7 0 -9 -16 -6
-41z"/>
<path d="M1845 1350 c3 -5 11 -10 16 -10 6 0 7 5 4 10 -3 6 -11 10 -16 10 -6
0 -7 -4 -4 -10z"/>
<path d="M2206 1345 c-3 -8 -1 -15 4 -15 6 0 10 7 10 15 0 8 -2 15 -4 15 -2 0
-6 -7 -10 -15z"/>
<path d="M2300 1335 c7 -9 15 -13 17 -11 7 7 -7 26 -19 26 -6 0 -6 -6 2 -15z"/>
<path d="M2171 1242 c-1 -7 -5 -11 -9 -8 -5 3 -9 -13 -10 -35 -1 -22 -9 -53
-17 -69 -19 -36 -19 -46 -1 -31 8 7 17 28 22 49 9 43 8 42 18 64 4 10 6 23 3
30 -4 10 -6 10 -6 0z"/>
<path d="M2116 1224 c-3 -9 -6 -33 -6 -54 0 -21 -5 -51 -11 -67 -6 -15 -12
-38 -13 -49 -2 -12 -13 -32 -25 -45 -14 -15 -20 -31 -17 -45 7 -28 -21 -55
-30 -29 -4 9 -2 27 5 41 14 32 14 45 -1 19 -11 -19 -11 -19 -19 0 -5 13 -6 4
-4 -24 1 -24 8 -47 15 -51 18 -11 4 -42 -18 -38 -19 3 -112 -77 -112 -96 0 -6
22 11 48 37 44 44 80 66 52 32 -7 -8 -9 -15 -5 -15 3 0 -14 -25 -40 -55 -26
-30 -44 -59 -40 -64 4 -7 0 -8 -10 -5 -14 6 -14 9 2 28 30 34 46 56 40 56 -3
0 -24 -23 -48 -51 -35 -42 -39 -50 -21 -45 22 7 22 7 -1 -18 -14 -14 -30 -26
-37 -26 -6 0 -41 -25 -75 -56 -58 -50 -69 -56 -117 -60 -29 -2 -71 -6 -93 -9
-48 -8 -102 14 -185 75 -67 48 -89 52 -37 6 20 -18 37 -37 37 -42 2 -34 167
-92 213 -75 14 5 28 7 31 4 3 -4 6 -1 6 5 0 7 15 12 33 12 39 0 123 42 119 60
-1 6 2 8 8 5 6 -4 20 1 31 11 21 19 27 6 7 -14 -7 -7 -13 -18 -14 -25 -6 -63
-6 -64 -14 -32 -6 25 -8 26 -9 7 0 -13 -5 -20 -11 -17 -6 4 -11 -6 -11 -22 -4
-76 -7 -101 -17 -138 -11 -41 -20 -79 -29 -128 -6 -29 -13 -33 -30 -16 -9 9
-14 5 -19 -15 -3 -14 -10 -26 -14 -26 -5 0 -10 -10 -12 -22 -3 -24 -109 -103
-118 -88 -3 5 -23 0 -45 -10 l-40 -19 50 6 c28 3 57 9 66 14 9 5 20 5 24 1 5
-4 5 -2 1 5 -4 8 2 15 19 19 14 3 25 11 25 16 0 6 7 7 15 4 9 -3 15 -1 14 7
-3 23 1 34 21 57 11 13 23 20 27 16 4 -3 -2 -13 -13 -21 -20 -15 -16 -19 10
-9 9 3 16 13 16 22 0 22 23 82 31 82 4 0 3 -15 -2 -32 -5 -18 -9 -46 -9 -63 0
-16 -9 -45 -20 -63 -12 -19 -16 -31 -10 -27 5 3 10 0 11 -7 0 -7 4 -5 8 5 6
17 8 17 31 -1 14 -11 36 -23 50 -27 25 -8 25 -7 7 13 -10 11 -29 23 -43 26
-13 4 -24 13 -24 22 0 8 4 13 9 9 12 -7 20 67 23 203 2 69 7 101 14 98 7 -3
16 27 24 80 9 56 16 80 22 72 6 -8 8 0 6 24 -4 35 0 41 49 80 28 24 51 47 49
53 -1 5 21 42 50 81 29 39 51 74 48 77 -3 3 4 8 15 12 12 3 21 11 21 16 0 6
-4 7 -10 4 -21 -13 -9 8 15 27 14 11 25 27 25 36 0 14 -2 15 -10 2 -5 -8 -12
-12 -15 -8 -10 10 34 50 47 42 7 -5 8 -3 3 5 -4 8 2 25 14 42 12 16 17 29 12
29 -5 0 -13 -4 -16 -10 -15 -24 -24 -7 -10 20 8 16 15 46 16 67 0 30 2 34 9
18 5 -14 7 -8 6 22 -1 44 -9 55 -20 27z m-316 -593 c0 -5 -7 -12 -16 -15 -14
-5 -15 -4 -4 9 14 17 20 19 20 6z m-63 -353 c-3 -8 -6 -5 -6 6 -1 11 2 17 5
13 3 -3 4 -12 1 -19z m0 -80 c-3 -8 -6 -5 -6 6 -1 11 2 17 5 13 3 -3 4 -12 1
-19z"/>
<path d="M1604 1089 c-4 -8 -3 -9 4 -5 7 4 12 2 12 -3 0 -6 5 -11 11 -11 13 0
7 22 -8 27 -6 2 -15 -1 -19 -8z"/>
<path d="M2019 1033 c-13 -16 -12 -17 4 -4 16 13 21 21 13 21 -2 0 -10 -8 -17
-17z"/>
<path d="M936 1020 c3 -14 9 -41 14 -60 8 -35 8 -35 8 -5 1 17 -5 44 -14 60
-12 25 -13 26 -8 5z"/>
<path d="M966 1032 c-4 -6 -2 -21 4 -33 12 -21 16 -201 6 -218 -4 -5 -9 -31
-12 -57 -3 -27 -7 -51 -9 -55 -3 -3 -7 -39 -10 -80 -3 -41 -8 -94 -11 -118 -5
-40 -4 -44 10 -32 13 11 16 11 16 -2 0 -8 -5 -18 -10 -20 -6 -3 -5 -4 2 -3 14
3 50 -62 42 -75 -6 -10 27 -69 38 -69 4 0 8 -6 8 -14 0 -16 77 -102 85 -95 6
7 -72 109 -93 122 -8 5 -10 17 -6 29 5 15 3 20 -7 16 -9 -4 -15 2 -16 16 -4
52 -21 129 -23 106 -2 -15 -6 -5 -10 25 -13 78 -12 105 4 105 17 0 30 78 21
120 -5 21 -3 30 6 30 18 0 4 232 -18 289 -6 16 -12 20 -17 13z"/>
<path d="M1529 966 c-2 -2 -26 -7 -54 -11 -27 -3 -60 -13 -72 -21 -12 -8 -33
-14 -46 -14 -13 0 -26 -3 -29 -6 -8 -7 21 -64 33 -64 6 0 6 7 -1 19 -14 27
-13 34 4 28 8 -3 31 3 51 14 66 36 199 26 248 -18 16 -15 17 -15 14 8 -2 17
-17 31 -47 47 -40 20 -89 29 -101 18z"/>
<path d="M1987 905 c3 -8 9 -12 14 -9 12 7 11 11 -5 17 -10 4 -13 1 -9 -8z"/>
<path d="M1475 900 c6 -9 -1 -10 -24 -5 -20 4 -31 3 -31 -4 0 -12 2 -12 65
-15 22 -1 76 -6 120 -10 128 -14 84 6 -65 29 -19 3 -43 8 -54 11 -13 4 -16 2
-11 -6z"/>
<path d="M1686 885 c1 -17 -4 -29 -18 -36 -23 -12 -174 -15 -201 -4 -10 4 -21
5 -24 1 -4 -3 -1 -6 6 -6 7 0 9 -4 6 -10 -5 -9 63 -16 103 -11 16 2 16 -15 -1
-22 -32 -12 -154 23 -143 42 3 4 -4 15 -15 24 -34 30 -24 -15 12 -49 27 -26
37 -29 92 -29 40 1 81 9 115 22 30 12 59 21 65 19 7 -1 9 -1 5 1 -4 3 4 15 17
27 29 27 31 36 10 36 -8 0 -15 5 -15 10 0 6 -4 10 -9 10 -4 0 -7 -11 -5 -25z"/>
<path d="M950 836 c0 -19 5 -38 10 -41 6 -4 10 8 10 29 0 19 -4 38 -10 41 -6
4 -10 -8 -10 -29z"/>
<path d="M1944 818 l-19 -23 23 19 c21 18 27 26 19 26 -2 0 -12 -10 -23 -22z"/>
<path d="M978 538 c-3 -16 -1 -28 3 -28 5 0 9 -7 9 -17 0 -9 2 -14 5 -11 3 3
2 23 -3 44 -8 37 -9 38 -14 12z"/>
<path d="M475 515 c-5 -2 -57 -9 -115 -14 -58 -6 -116 -13 -130 -16 -14 -3
-71 -12 -128 -21 -56 -9 -102 -20 -102 -25 0 -12 2 -12 173 15 84 14 205 30
270 37 64 7 117 16 117 21 0 8 -65 10 -85 3z"/>
<path d="M870 501 c0 -5 13 -11 29 -13 21 -3 28 -1 24 9 -6 14 -53 18 -53 4z"/>
<path d="M822 491 c-11 -7 -10 -10 3 -15 23 -9 25 -8 25 9 0 17 -9 19 -28 6z"/>
<path d="M585 479 c-33 -4 -107 -15 -165 -24 -58 -8 -172 -22 -255 -31 -82 -8
-154 -19 -159 -25 -17 -16 2 -21 36 -10 18 5 71 12 118 15 47 3 98 9 113 15
29 11 74 15 65 6 -3 -3 -18 -8 -33 -11 -16 -3 -36 -9 -46 -14 -9 -5 -38 -12
-63 -15 -24 -3 -58 -12 -73 -20 -15 -8 -34 -15 -40 -15 -16 0 -16 -6 -3 -31 8
-15 7 -19 -4 -19 -16 0 -31 -18 -22 -27 3 -3 12 -1 19 5 8 7 40 26 73 42 38
20 48 28 29 24 -16 -4 -40 -14 -53 -22 -12 -8 -25 -12 -28 -9 -10 10 41 37 87
46 24 5 64 13 89 19 137 32 379 67 430 61 41 -5 59 -2 70 9 13 12 12 13 -9 7
-16 -5 -21 -4 -17 4 5 7 -6 9 -33 7 -31 -3 -38 -1 -34 10 6 16 -1 16 -92 3z
m62 -15 c-3 -3 -12 -4 -19 -1 -8 3 -5 6 6 6 11 1 17 -2 13 -5z m-117 -13 c-20
-4 -42 -11 -50 -16 -13 -8 -13 -6 -1 8 8 11 27 17 50 16 l36 -1 -35 -7z m-70
-10 c0 -5 -10 -11 -22 -14 -22 -6 -22 -6 -4 8 23 17 26 18 26 6z m-60 -11 c0
-5 -10 -10 -22 -9 -22 0 -22 1 -3 9 11 5 21 9 23 9 1 1 2 -3 2 -9z"/>
<path d="M906 442 c-3 -6 -25 -13 -49 -17 -44 -7 -165 -51 -181 -65 -10 -10
34 0 122 28 34 11 62 18 62 16 0 -3 9 0 19 5 16 9 20 6 25 -15 4 -14 4 -28 2
-33 -3 -4 -6 -56 -7 -114 -1 -78 2 -112 12 -124 12 -14 15 -1 19 93 3 60 3
114 0 119 -2 6 -6 33 -8 60 -4 54 -7 62 -16 47z"/>
<path d="M639 416 c-2 -2 -83 -16 -180 -31 -178 -26 -255 -42 -213 -44 29 -1
224 27 308 44 87 18 83 18 83 0 0 -8 -4 -12 -7 -10 -9 6 -181 -52 -193 -64 -8
-8 163 37 203 53 9 4 17 18 18 31 2 22 -7 32 -19 21z"/>
<path d="M690 400 c0 -5 4 -10 9 -10 6 0 13 5 16 10 3 6 -1 10 -9 10 -9 0 -16
-4 -16 -10z"/>
<path d="M31 364 c-52 -23 -30 -27 25 -5 27 11 40 20 29 20 -11 -1 -35 -7 -54
-15z"/>
<path d="M940 357 c0 -8 6 -18 13 -21 9 -5 9 -7 0 -12 -9 -4 -6 -15 12 -38 14
-18 25 -37 25 -42 0 -15 100 -178 118 -191 29 -23 35 -13 8 13 -14 15 -26 31
-26 35 0 12 6 11 22 -4 23 -23 129 -67 161 -67 37 0 25 18 -18 26 -15 3 -44
13 -64 24 -20 10 -49 23 -64 29 -16 7 -31 20 -34 31 -3 11 -11 16 -19 13 -9
-3 -20 9 -33 38 -11 24 -18 46 -15 51 2 4 -4 12 -15 18 -11 6 -26 28 -32 50
-13 43 -39 75 -39 47z"/>
<path d="M800 343 c-14 -9 -41 -28 -60 -42 -19 -14 -39 -26 -45 -27 -19 -3
-285 -104 -307 -117 -12 -6 -41 -30 -65 -52 -24 -22 -59 -48 -76 -57 l-32 -17
35 6 c43 8 80 30 80 49 0 7 10 19 22 25 13 7 29 18 36 26 7 7 22 13 32 13 10
0 20 3 22 8 3 8 275 98 325 107 32 6 81 41 71 50 -3 3 -22 -4 -41 -15 -20 -12
-44 -20 -54 -18 -12 2 2 13 40 31 33 15 56 31 52 37 -8 13 -6 13 -35 -7z"/>
<path d="M723 343 c-13 -2 -23 -9 -23 -14 0 -5 -7 -9 -15 -9 -8 0 -15 -4 -15
-9 0 -5 -19 -12 -42 -16 -24 -4 -50 -13 -58 -20 -8 -8 -19 -14 -25 -16 -13 -2
-18 -4 -82 -24 -28 -9 -54 -23 -57 -32 -5 -11 -2 -14 11 -8 10 4 63 24 118 45
127 48 185 74 210 94 20 16 18 17 -22 9z"/>
<path d="M605 330 c-86 -23 -146 -41 -199 -59 -33 -12 -62 -19 -64 -16 -3 3 9
10 27 16 18 6 30 13 28 16 -7 6 -107 -39 -107 -49 0 -4 -4 -8 -9 -8 -19 0
-181 -81 -181 -90 0 -8 -40 -30 -82 -44 -29 -9 -21 -24 10 -18 30 6 101 43
147 77 17 12 48 28 70 36 22 8 46 20 53 27 7 6 20 12 29 12 17 0 191 55 241
76 18 8 44 14 57 14 13 0 27 5 30 10 7 11 -7 11 -50 0z"/>
<path d="M265 294 c-127 -38 -132 -40 -122 -51 4 -4 49 6 100 22 50 15 107 32
124 37 34 10 55 28 31 28 -7 -1 -67 -17 -133 -36z"/>
<path d="M675 213 c-55 -20 -57 -27 -5 -19 25 4 52 13 60 21 13 13 13 15 0 14
-8 -1 -33 -8 -55 -16z"/>
<path d="M1780 222 c0 -14 23 -36 76 -73 53 -36 59 -23 7 17 -21 15 -40 30
-43 33 -17 19 -40 32 -40 23z"/>
<path d="M325 190 c-3 -6 1 -7 9 -4 18 7 21 14 7 14 -6 0 -13 -4 -16 -10z"/>
<path d="M330 164 c-134 -62 -200 -97 -200 -105 0 -5 -10 -14 -23 -19 l-22 -9
23 0 c27 -1 167 62 178 80 5 8 3 10 -7 5 -8 -4 -5 0 5 8 11 9 27 16 35 16 9 1
30 12 46 25 38 31 33 31 -35 -1z"/>
<path d="M496 150 c-60 -21 -113 -43 -119 -49 -16 -16 -5 -14 60 11 32 12 60
22 63 21 3 -1 32 12 65 27 83 39 60 36 -69 -10z"/>
<path d="M220 170 c-8 -5 -10 -10 -5 -10 6 0 17 5 25 10 8 5 11 10 5 10 -5 0
-17 -5 -25 -10z"/>
<path d="M535 128 c-49 -22 -112 -49 -138 -61 -51 -22 -76 -44 -36 -32 60 19
300 134 279 134 -8 0 -55 -18 -105 -41z"/>
<path d="M848 163 c-19 -5 -25 -33 -7 -33 11 0 39 24 39 34 0 6 -5 6 -32 -1z"/>
<path d="M1910 152 c0 -26 44 -72 97 -99 l43 -22 -16 24 c-8 13 -21 22 -28 19
-15 -6 -72 45 -68 62 1 6 -5 17 -13 24 -13 10 -15 9 -15 -8z"/>
<path d="M1953 159 c2 -8 10 -13 16 -11 6 1 11 -2 11 -8 0 -5 7 -10 15 -10 9
0 18 -7 21 -15 4 -8 13 -15 22 -15 8 0 44 -16 80 -35 35 -20 71 -35 78 -33 16
3 -131 88 -152 88 -8 0 -14 4 -14 8 0 4 -15 14 -32 22 -18 7 -37 15 -42 18 -5
2 -6 -2 -3 -9z"/>
<path d="M711 130 c-35 -11 -84 -29 -108 -40 -23 -11 -47 -20 -53 -20 -5 0
-10 -4 -10 -8 0 -5 -10 -14 -22 -21 -20 -10 -18 -11 17 -6 64 10 235 57 235
66 0 4 -32 -1 -71 -12 -40 -11 -77 -18 -83 -16 -14 5 106 44 162 53 23 4 42
10 42 15 0 14 -38 9 -109 -11z"/>
<path d="M1555 130 c-16 -11 -25 -20 -20 -20 10 0 64 39 55 40 -3 0 -18 -9
-35 -20z"/>
<path d="M1770 138 c0 -7 10 -14 23 -14 31 -2 109 -33 130 -51 21 -20 23 -7 1
14 -39 39 -154 77 -154 51z"/>
<path d="M107 94 c-16 -9 -26 -18 -23 -21 3 -3 20 4 38 16 38 24 27 28 -15 5z"/>
<path d="M785 69 c-74 -33 -83 -39 -50 -35 55 8 123 23 107 25 -7 0 -10 6 -7
11 10 17 49 11 103 -15 69 -33 73 -32 26 10 -23 21 -46 34 -56 31 -10 -2 -18
0 -18 5 0 14 -8 11 -105 -32z"/>
<path d="M2156 92 c16 -15 115 -53 126 -50 10 4 -2 10 -75 42 -41 17 -67 21
-51 8z"/>
<path d="M1617 73 c-12 -11 -8 -23 7 -23 8 0 16 -5 18 -12 3 -7 7 -5 11 6 4
10 3 15 -3 11 -6 -3 -10 1 -10 9 0 17 -12 21 -23 9z"/>
<path d="M3 15 c0 -13 179 -15 1381 -14 760 1 1370 4 1356 9 -14 4 -631 7
-1371 7 -741 0 -1351 3 -1356 6 -5 4 -10 0 -10 -8z"/>
</g>
</svg>
